<svg width="35" height="40" viewBox="0 0 35 40" fill="none" xmlns="http://www.w3.org/2000/svg">
  <!-- Base star in white -->
  <path d="M20.0231 21.2304L19.9436 21.3074L17.4171 23.7662L14.802 21.2208L17.3796 18.7128L17.4076 18.6851L17.4171 18.6758L19.9436 21.1346L20.0326 21.2208L20.0231 21.2304ZM31.019 10.5512L28.368 7.97083L19.2921 16.8034V4.30292H15.5422V16.848L6.42042 7.97083L3.76894 10.5512L12.8574 19.3965H0V23.0455H12.8776L3.76894 31.91L6.42042 34.4908L15.5422 25.6136V38.1587H19.2921V25.6583L28.368 34.4908L31.019 31.91L21.9104 23.0455H34.788V19.3965H21.9309L31.019 10.5512Z" fill="white"/>
  
  <!-- Blue tip overlays -->
  <!-- Top tip -->
  <path d="M17.4921 4.30292V5.8L19.2921 4.30292H17.4921Z" fill="#0577FF"/>
  <!-- Top right tip -->
  <path d="M28.368 7.97083L31.019 10.5512L29.8 9.1L28.368 7.97083Z" fill="#0577FF"/>
  <!-- Right tip -->
  <path d="M34.788 19.3965V23.0455H33.2L34.788 19.3965Z" fill="#0577FF"/>
  <!-- Bottom right tip -->
  <path d="M28.368 34.4908L31.019 31.91L29.8 33.3L28.368 34.4908Z" fill="#0577FF"/>
  <!-- Bottom tip -->
  <path d="M17.4921 38.1587V36.7L19.2921 38.1587H17.4921Z" fill="#0577FF"/>
  <!-- Bottom left tip -->
  <path d="M6.42042 34.4908L3.76894 31.91L4.9 33.3L6.42042 34.4908Z" fill="#0577FF"/>
  <!-- Left tip -->
  <path d="M0 23.0455V19.3965H1.6L0 23.0455Z" fill="#0577FF"/>
  <!-- Top left tip -->
  <path d="M6.42042 7.97083L3.76894 10.5512L4.9 9.1L6.42042 7.97083Z" fill="#0577FF"/>
</svg>